<?xml version="1.0" encoding="UTF-8" standalone="no"?>
<svg version="1.0" xmlns="http://www.w3.org/2000/svg"
 width="1280.000000pt" height="1280.000000pt" viewBox="0 0 1280.000000 1280.000000"
 preserveAspectRatio="xMidYMid meet">

<g transform="translate(0.000000,1280.000000) scale(0.100000,-0.100000)"
fill="#000000" stroke="none">
<path d="M6637 9613 c-54 -26 -60 -32 -83 -88 -13 -33 -24 -67 -24 -75 -1 -8
-13 -38 -28 -66 -25 -48 -62 -83 -173 -166 -43 -32 -89 -118 -89 -165 0 -28
-4 -33 -24 -33 -13 0 -29 7 -36 15 -22 26 -73 18 -106 -16 -16 -17 -47 -43
-68 -58 -21 -14 -57 -38 -80 -54 -54 -36 -89 -33 -96 8 -6 37 -13 37 -71 3
-85 -51 -155 -70 -279 -75 -63 -3 -133 0 -155 5 -22 6 -87 22 -144 37 -58 14
-114 24 -126 21 -12 -3 -52 -26 -90 -51 -38 -25 -72 -45 -75 -45 -3 0 -12 -17
-20 -37 -8 -21 -16 -41 -18 -45 -2 -3 6 -9 18 -13 11 -3 31 -23 45 -43 35 -51
36 -153 3 -202 -31 -44 -82 -70 -140 -70 -27 0 -48 -4 -48 -8 0 -4 -40 -14
-90 -21 -49 -8 -102 -22 -118 -31 -28 -17 -62 -68 -62 -94 0 -6 -14 -38 -30
-71 -17 -33 -30 -67 -30 -76 0 -21 -29 -89 -30 -69 0 12 -3 11 -17 -3 -15 -15
-16 -23 -6 -61 15 -55 2 -109 -37 -147 -16 -16 -30 -44 -33 -66 -8 -45 -33
-82 -73 -105 -44 -26 -296 -29 -341 -5 -38 20 -83 22 -130 5 -29 -11 -36 -9
-63 11 -75 55 -129 3 -149 -143 -12 -92 -26 -178 -41 -251 -20 -100 -30 -316
-26 -592 3 -280 3 -282 29 -335 32 -64 255 -292 334 -342 48 -30 164 -84 251
-116 51 -20 51 -48 1 -131 -52 -86 -65 -133 -74 -271 -9 -130 1 -165 56 -196
21 -12 51 -39 66 -59 15 -21 41 -48 56 -62 37 -31 57 -72 57 -114 0 -53 34
-117 91 -172 46 -45 169 -215 169 -235 0 -5 31 -31 69 -60 46 -33 92 -81 135
-138 122 -164 186 -212 391 -292 113 -45 159 -79 171 -126 3 -13 11 -24 16
-24 6 0 40 -20 77 -44 47 -31 81 -45 118 -50 29 -4 71 -14 95 -22 24 -9 64
-15 89 -15 31 1 72 -9 120 -28 143 -57 282 -65 370 -21 46 23 103 66 165 126
47 44 84 44 211 4 146 -47 193 -43 333 26 219 107 421 163 490 134 48 -20 136
-148 150 -218 6 -31 14 -65 16 -74 9 -30 157 -159 214 -186 41 -19 71 -26 122
-26 77 -1 110 -20 143 -79 11 -20 23 -37 26 -37 3 0 9 31 13 70 12 137 80 273
182 370 159 148 368 200 584 145 31 -7 32 -1 27 170 -1 17 4 109 11 205 12
174 13 176 53 255 22 44 57 105 79 135 21 30 51 71 65 91 17 25 28 55 32 92 7
70 -23 139 -95 218 -29 31 -52 61 -52 67 0 5 27 33 59 61 112 97 151 191 151
361 0 52 -7 127 -16 165 -37 173 -45 230 -39 276 4 26 1 91 -5 143 -11 84 -10
107 5 180 25 119 18 237 -18 298 -33 56 -115 148 -132 148 -15 0 -25 22 -25
57 0 14 -10 42 -22 62 -13 21 -26 61 -29 96 -10 87 -29 201 -45 272 -8 34 -14
86 -14 116 0 46 -9 71 -74 198 -40 80 -77 164 -81 187 -5 30 -15 48 -35 62
-37 26 -117 133 -142 188 -10 23 -26 42 -34 42 -42 0 -192 125 -181 152 8 23
-15 54 -78 101 -33 24 -69 54 -79 66 -13 14 -66 36 -147 62 -95 30 -133 48
-155 70 -22 23 -36 29 -72 29 -24 0 -65 7 -91 15 -25 8 -63 17 -83 20 -68 10
-116 59 -180 180 -64 123 -71 166 -39 226 l20 37 -26 23 c-14 13 -45 52 -68
87 -41 62 -70 71 -42 15 7 -15 19 -53 26 -83 11 -48 11 -61 -3 -95 -37 -87
-70 -95 -133 -33 l-43 42 0 130 c0 123 -1 132 -30 193 -16 34 -35 63 -41 63
-6 0 -35 26 -65 57 l-55 58 -77 3 c-67 3 -84 0 -135 -25z m-719 -808 c-3 -3
-9 2 -12 12 -6 14 -5 15 5 6 7 -7 10 -15 7 -18z m-34 -7 c-4 -7 -14 -21 -22
-30 -8 -10 -10 -18 -4 -18 6 0 12 6 15 13 2 6 8 8 13 4 12 -11 -11 -42 -30
-41 -9 1 -16 -4 -16 -12 0 -8 -10 -14 -26 -14 -14 0 -23 4 -19 10 3 6 1 10 -5
10 -6 0 2 14 18 30 17 17 33 30 37 30 4 0 13 7 21 15 19 18 28 20 18 3z m151
-66 c62 -22 65 -44 8 -56 -25 -5 -43 -15 -43 -22 0 -8 -4 -14 -10 -14 -5 0
-10 18 -10 39 0 22 -4 43 -10 46 -14 9 -12 25 3 25 6 0 35 -8 62 -18z m-252
-46 c3 -8 -1 -20 -9 -26 -18 -16 -18 -35 2 -66 9 -13 15 -26 13 -28 -14 -10
-80 -36 -92 -36 -9 0 -17 6 -20 13 -2 7 -3 6 -3 -3 2 -21 -34 -60 -56 -60 -10
0 -18 -4 -18 -9 0 -15 -36 -19 -54 -6 -21 16 -11 23 46 34 25 4 42 12 40 20
-2 11 33 55 46 57 18 2 42 17 42 26 0 6 -7 5 -15 -2 -20 -17 -31 -5 -14 14 8
8 25 31 39 50 27 38 44 45 53 22z m657 -196 c0 -5 -4 -10 -10 -10 -5 0 -10 5
-10 10 0 6 5 10 10 10 6 0 10 -4 10 -10z m17 -52 c-3 -8 -6 -5 -6 6 -1 11 2
17 5 13 3 -3 4 -12 1 -19z m-30 -10 c-3 -8 -6 -5 -6 6 -1 11 2 17 5 13 3 -3 4
-12 1 -19z m-1181 -105 c13 -40 28 -62 37 -56 6 4 8 0 4 -10 -3 -9 -1 -17 6
-20 8 -2 7 -12 -3 -37 -13 -31 -14 -32 -22 -11 -5 15 -13 21 -25 17 -10 -3
-25 -1 -33 4 -8 5 -11 10 -6 10 5 0 4 6 -1 13 -23 28 -23 62 0 84 27 27 36 28
43 6z m1279 -113 c3 -5 -1 -10 -9 -10 -9 0 -16 5 -16 10 0 6 4 10 9 10 6 0 13
-4 16 -10z m80 -50 c-3 -5 -14 -10 -23 -10 -15 0 -15 2 -2 10 20 13 33 13 25
0z m-299 -869 c129 -56 143 -190 41 -403 -52 -109 -158 -272 -245 -378 -34
-41 -58 -77 -54 -81 4 -4 25 -12 47 -19 41 -13 155 -67 155 -74 0 -2 -47 11
-105 30 -57 19 -111 34 -119 34 -8 0 -24 -12 -36 -27 -45 -59 -250 -259 -350
-342 -254 -211 -459 -334 -680 -406 -71 -23 -103 -28 -195 -29 -93 -1 -115 2
-144 19 -53 31 -74 67 -79 135 -4 53 0 69 28 127 84 171 335 361 630 476 206
81 347 108 538 106 l133 -2 57 70 c133 165 177 224 246 328 88 133 129 215
120 241 -4 14 -3 15 4 6 7 -11 11 -8 15 10 13 46 7 105 -12 129 -18 22 -26 24
-118 23 -115 -1 -175 -21 -326 -112 -133 -79 -197 -131 -327 -261 -118 -118
-158 -169 -184 -232 -26 -62 -7 -67 134 -34 24 6 24 6 6 -9 -32 -26 -128 -58
-175 -58 -37 -1 -48 4 -69 27 -21 25 -24 36 -19 76 3 26 15 66 26 87 49 97
230 270 384 369 114 73 333 173 380 173 9 0 17 4 17 9 0 5 9 7 20 4 11 -3 20
-1 20 3 0 5 42 9 93 8 71 -1 103 -6 143 -23z m1932 -7 c67 -33 86 -67 80 -143
-6 -79 -41 -145 -123 -226 -83 -83 -155 -124 -229 -132 -50 -5 -57 -3 -80 22
-14 15 -26 36 -26 46 0 21 52 84 83 101 19 10 19 9 -2 -26 l-23 -36 24 0 c42
0 143 56 205 114 97 90 131 187 81 234 -53 49 -124 54 -253 17 -223 -65 -483
-236 -744 -490 -183 -178 -283 -308 -366 -473 -91 -183 -100 -342 -23 -383 12
-7 52 -12 88 -11 219 1 664 272 1145 698 l40 35 -50 -6 c-178 -23 -479 -101
-575 -150 -26 -13 -57 -36 -68 -49 -19 -24 -20 -25 -36 -8 -8 10 -21 33 -27
50 -9 27 -8 37 6 58 45 69 325 138 645 159 143 10 342 -20 394 -58 18 -13 14
-14 -35 -7 -29 5 -76 11 -103 15 l-50 7 32 -27 c18 -15 37 -35 42 -45 9 -16 6
-19 -18 -18 -82 2 -280 -173 -449 -398 -167 -221 -323 -526 -323 -631 0 -18
-4 -33 -8 -33 -20 0 -32 28 -32 74 0 157 125 458 277 670 34 48 35 49 7 25
-114 -102 -409 -297 -559 -370 -138 -67 -216 -89 -309 -89 -153 0 -225 75
-226 235 0 107 19 178 84 310 72 145 153 254 300 400 192 190 427 355 646 451
187 82 298 112 426 113 67 1 88 -3 132 -25z"/>
<path d="M5630 6429 c-221 -26 -525 -141 -720 -272 -216 -145 -340 -358 -254
-438 22 -20 35 -24 87 -23 199 2 554 201 864 482 98 89 239 240 231 247 -10 9
-144 12 -208 4z"/>
</g>
</svg>
